<?xml version="1.0" encoding="utf-8"?>
<!-- Generator: Adobe Illustrator 19.1.0, SVG Export Plug-In . SVG Version: 6.00 Build 0)  -->
<svg version="1.1" id="Layer_1" xmlns="http://www.w3.org/2000/svg" xmlns:xlink="http://www.w3.org/1999/xlink" x="0px" y="0px"
	 viewBox="0 -42 200 185" style="enable-background:new 0 -42 200 185;" xml:space="preserve">
<style type="text/css">
	.st0{fill:#2988EF;}
	.st1{fill:#FFFFFF;}
	.st2{fill:#FFFFFF;}
	.st3{fill:#FFFFFF;}
</style>
<path class="st0" d="M75.1,25.4L45.8,42.2c-2.1,1.2-4.8,1.2-6.9,0L9.8,25.3c-2.1-1.2-3.4-3.5-3.4-6l0-33.8c0-2.5,1.3-4.7,3.4-6
	l29.3-16.8c2.1-1.2,4.8-1.2,6.9,0l29.2,16.9c2.1,1.2,3.4,3.5,3.4,6l0,33.8C78.6,21.8,77.2,24.1,75.1,25.4z"/>
<g>
	<path class="st1" d="M47.3-21.5c-8.9-2.9-18.4,1.9-21.4,10.8s1.9,18.4,10.8,21.4l0,0c4.4,1.6,6.8,6.4,5.3,10.8s-6.2,6.9-10.7,5.6
		l0,0c13.4,4.4,27.9-2.9,32.3-16.3S60.7-17.1,47.3-21.5z"/>
</g>
<circle class="st0" cx="37.1" cy="-4.3" r="2.7"/>
<path class="st2" d="M75.2-0.6c-0.1,5.2-4.1,9.7-9.5,10.1c-4.1,0.4-7.9-1.8-9.8-5.2l0,0c-1.1-1.5-3.2-1.8-4.7-0.8
	c-1.5,1.1-1.9,3.2-0.8,4.7l1.6-1.2l-1.6,1.2c2.8,3.5,7.2,5.5,12,5.1C69.8,12.8,75.3,6.7,75.2-0.6z"/>
<circle class="st3" cx="30.4" cy="17.9" r="1.6"/>
</svg>
